<?xml version="1.0" encoding="UTF-8"?>
<svg id="_레이어_2" data-name="레이어 2" xmlns="http://www.w3.org/2000/svg" viewBox="0 0 1201.3 356.44">
  <defs>
    <style>
      .cls-1 {
        fill: #d6e8f2;
      }
    </style>
  </defs>
  <g id="cloud_01">
    <path class="cls-1" d="M1201.3,3.92s-98.26-28.24-138.17,66.85c0,0-32.48-16.04-60.65,23.87,0,0-38.35-25.83-71.22-15.65,0,0-50.87,8.61-70.43,76.7,0,0-27.39-46.96-90.78-34.43,0,0-23.48-40.7-72-33.65,0,0-39.13,4.7-51.65,48.52,0,0-46.96-13.3-75.91,19.57,0,0-32.87-24.26-75.91-5.48,0,0-33.61,13.77-46.91,60.72,0,0-25.83-21.91-75.17-12.99,0,0-38.35,1.57-55.57,35.22,0,0-54.52-10.71-76.83,42.12,0,0-68.48-.78-85.7,44.61,0,0-73.96-25.83-154.39,36.56l1201.3-.42V3.92Z"/>
  </g>
</svg>