<?xml version="1.0" encoding="UTF-8"?>
<svg id="_레이어_2" data-name="레이어 2" xmlns="http://www.w3.org/2000/svg" viewBox="0 0 1036.55 356.06">
  <defs>
    <style>
      .cls-1 {
        fill: #d6e8f2;
      }
    </style>
  </defs>
  <g id="cloud_02">
    <path class="cls-1" d="M1036.55,4.28s-102.91-29.35-142.83,65.74c0,0-32.48-16.04-60.65,23.87,0,0-38.35-25.83-71.22-15.65,0,0-50.87,8.61-70.43,76.7,0,0-27.39-46.96-90.78-34.43,0,0-23.48-40.7-72-33.65,0,0-39.13,4.7-51.65,48.52,0,0-46.96-13.3-75.91,19.57,0,0-32.87-24.26-75.91-5.48,0,0-33.61,13.77-46.91,60.72,0,0-25.83-21.91-75.17-12.99,0,0-38.35,1.57-55.57,35.22,0,0-43.04-15.65-71.22,34.43,0,0-47.74-3.13-64.96,42.26,0,0-15.65,24.26-10.17,46.96l1029.43-8.61,5.96-343.17Z"/>
  </g>
</svg>