<?xml version="1.0" encoding="UTF-8"?>
<svg id="_레이어_2" data-name="레이어 2" xmlns="http://www.w3.org/2000/svg" viewBox="0 0 1201.3 138.97">
  <defs>
    <style>
      .cls-1 {
        fill: #f7f8f9;
      }
    </style>
  </defs>
  <g id="cloud_01">
    <path class="cls-1" d="M0,138.97h1201.3v-63.96s-72.3-16.66-92.65,28.73c0,0-18-64.96-91.57-61.04,0,0-22.7-47.74-82.17-42.26,0,0-41.48-.78-67.3,39.91,0,0-54-25.48-93.13,11.52,0,0-38.61-34.22-92.35-25.87,0,0-51.65,3.13-84.52,62.09,0,0-32.35-47.48-103.3-44.35,0,0-19.3-40.7-73.57-42.78,0,0-50.61-4.17-76.17,38.61,0,0-21.39-16.17-67.3-15.65,0,0-29.22-2.09-70.96,22.43,0,0-41.74-29.74-110.09-17.74C96.21,28.61,42.31,37.8,0,92.59"/>
  </g>
</svg>