<?xml version="1.0" encoding="UTF-8"?>
<svg id="_레이어_2" data-name="레이어 2" xmlns="http://www.w3.org/2000/svg" viewBox="0 0 1207.26 1331.17">
  <defs>
    <style>
      .cls-1 {
        fill: #b7d0e5;
      }

      .cls-2 {
        fill: #f7f8f9;
      }

      .cls-3 {
        fill: #d6e8f2;
      }

      .cls-4 {
        fill: #69b1e2;
      }
    </style>
  </defs>
  <g id="cloud_01">
    <g>
      <rect class="cls-4" width="1201.3" height="1328.4"/>
      <g>
        <path class="cls-1" d="M0,1040.87s33.65-21.13,79.83,0c0,0,39.13,15.65,64.17,58.7,0,0,27.39-8.61,57.91,13.3,0,0,10.96,6.26,25.83,29.74,0,0,22.7-51.65,64.96-62.61,0,0,39.91-14.09,82.17,21.91,0,0,33.65-28.96,80.61-10.17,0,0,11.74-32.87,54-38.35,0,0,46.96-6.26,67.3,39.91,0,0,43.83-7.04,62.61,28.96,0,0,28.17-15.65,53.22,4.7,0,0,14.87,11.74,16.43,30.52l3.13,147.09H0v-263.7Z"/>
        <path class="cls-3" d="M1205.96,977.41s-102.91-29.35-142.83,65.74c0,0-32.48-16.04-60.65,23.87,0,0-38.35-25.83-71.22-15.65,0,0-50.87,8.61-70.43,76.7,0,0-27.39-46.96-90.78-34.43,0,0-23.48-40.7-72-33.65,0,0-39.13,4.7-51.65,48.52,0,0-46.96-13.3-75.91,19.57,0,0-32.87-24.26-75.91-5.48,0,0-33.61,13.77-46.91,60.72,0,0-25.83-21.91-75.17-12.99,0,0-38.35,1.57-55.57,35.22,0,0-43.04-15.65-71.22,34.43,0,0-47.74-3.13-64.96,42.26,0,0-15.65,24.26-10.17,46.96l1029.43-8.61,5.96-343.17Z"/>
        <path class="cls-2" d="M0,1331.17h1202.6s4.66-65.7,4.66-65.7c0,0-71.22-16.43-91.57,28.96,0,0-18-64.96-91.57-61.04,0,0-22.7-47.74-82.17-42.26,0,0-41.48-.78-67.3,39.91,0,0-54-25.48-93.13,11.52,0,0-38.61-34.22-92.35-25.87,0,0-51.65,3.13-84.52,62.09,0,0-32.35-47.48-103.3-44.35,0,0-19.3-40.7-73.57-42.78,0,0-50.61-4.17-76.17,38.61,0,0-21.39-16.17-67.3-15.65,0,0-29.22-2.09-70.96,22.43,0,0-41.74-29.74-110.09-17.74C103.26,1219.3,42.31,1226.09,0,1280.87"/>
      </g>
    </g>
  </g>
</svg>