<?xml version="1.0" encoding="UTF-8"?>
<svg id="_레이어_2" data-name="레이어 2" xmlns="http://www.w3.org/2000/svg" viewBox="0 0 712.17 273.09">
  <defs>
    <style>
      .cls-1 {
        fill: #b7d0e5;
      }
    </style>
  </defs>
  <g id="cloud_03">
    <path class="cls-1" d="M0,9.39s33.65-21.13,79.83,0c0,0,39.13,15.65,64.17,58.7,0,0,27.39-8.61,57.91,13.3,0,0,10.96,6.26,25.83,29.74,0,0,22.7-51.65,64.96-62.61,0,0,39.91-14.09,82.17,21.91,0,0,33.65-28.96,80.61-10.17,0,0,11.74-32.87,54-38.35,0,0,46.96-6.26,67.3,39.91,0,0,43.83-7.04,62.61,28.96,0,0,28.17-15.65,53.22,4.7,0,0,14.87,11.74,16.43,30.52l3.13,147.09H0V9.39Z"/>
  </g>
</svg>